<?xml version="1.0" encoding="UTF-8" standalone="no"?>
<!-- Created with Inkscape (http://www.inkscape.org/) -->

<svg
   xmlns:dc="http://purl.org/dc/elements/1.1/"
   xmlns:cc="http://creativecommons.org/ns#"
   xmlns:rdf="http://www.w3.org/1999/02/22-rdf-syntax-ns#"
   xmlns:svg="http://www.w3.org/2000/svg"
   xmlns="http://www.w3.org/2000/svg"
   xmlns:sodipodi="http://sodipodi.sourceforge.net/DTD/sodipodi-0.dtd"
   xmlns:inkscape="http://www.inkscape.org/namespaces/inkscape"
   width="744.09448819"
   height="1052.3622047"
   id="svg3208"
   version="1.1"
   inkscape:version="0.48.4 r9939"
   sodipodi:docname="istiLogo.svg">
  <defs
     id="defs3210" />
  <sodipodi:namedview
     id="base"
     pagecolor="#ffffff"
     bordercolor="#666666"
     borderopacity="1.0"
     inkscape:pageopacity="0.0"
     inkscape:pageshadow="2"
     inkscape:zoom="0.35"
     inkscape:cx="375"
     inkscape:cy="520"
     inkscape:document-units="px"
     inkscape:current-layer="layer1"
     showgrid="false"
     inkscape:window-width="1920"
     inkscape:window-height="1001"
     inkscape:window-x="-9"
     inkscape:window-y="-9"
     inkscape:window-maximized="1" />
  <metadata
     id="metadata3213">
    <rdf:RDF>
      <cc:Work
         rdf:about="">
        <dc:format>image/svg+xml</dc:format>
        <dc:type
           rdf:resource="http://purl.org/dc/dcmitype/StillImage" />
        <dc:title />
      </cc:Work>
    </rdf:RDF>
  </metadata>
  <g
     inkscape:label="Layer 1"
     inkscape:groupmode="layer"
     id="layer1">
    <rect
       style="fill:#cccccc;stroke:#000000;stroke-width:0.7086615;stroke-miterlimit:4;stroke-opacity:1;stroke-dasharray:none;overflow:visible"
       id="rect3126"
       width="746.68854"
       height="746.13434"
       x="0.94145632"
       y="156.43781"
       ry="25" />
    <path
       style="fill:#7f7f7f;fill-opacity:1;stroke:#000000;stroke-width:0.7086615;stroke-miterlimit:4;stroke-opacity:1;stroke-dasharray:none;overflow:visible"
       d="m 314.5328,751.1706 c -30.51658,-27.27058 -31.83967,-29.40083 -24.86858,-40.04006 24.32839,-37.12996 19.32676,-75.05927 -17.28963,-131.11509 -13.82188,-21.15984 -31.32162,-52.04398 -38.88841,-68.63147 -12.02782,-26.36688 -13.36652,-34.34785 -10.64684,-63.47252 l 3.11085,-33.31348 -20.98266,3.35532 c -11.54051,1.84536 -41.88628,11.42823 -67.43508,21.29526 -25.5488,9.86697 -48.179329,16.14463 -50.290016,13.9503 -2.110692,-2.19432 -15.318993,-28.60448 -29.35183,-58.68922 l -25.514133,-54.6996 34.082572,-15.23508 c 90.452787,-40.4329 168.609867,-54.19435 305.953437,-53.87057 80.65868,0.18996 115.20491,2.51809 161.58369,10.88861 63.8702,11.52736 125.90901,30.12829 161.37167,48.38362 l 22.35892,11.50981 -25.11753,55.93629 c -13.8147,30.76502 -25.91357,56.73233 -26.88648,57.70519 -0.9728,0.97285 -33.33075,-8.61715 -71.90641,-21.31116 -38.57567,-12.69399 -71.27865,-23.07996 -72.67335,-23.07996 -1.39466,0 -2.54513,46.744 -2.55659,103.87553 -0.011,57.13158 -1.52182,133.30697 -3.35643,169.27866 l -3.33564,65.40314 -45.37512,0 -45.37513,0 0,-173.8595 c 0,-196.25943 3.92763,-180.08682 -43.73546,-180.08682 -33.95985,0 -52.5822,13.71083 -57.09035,42.03302 -5.0204,31.54005 2.39839,53.31658 34.52824,101.35145 39.95806,59.73805 47.33007,77.93968 47.88473,118.22802 0.37438,27.17864 -2.28398,38.75628 -14.37848,62.62535 -8.16066,16.10537 -20.85649,36.28127 -28.21299,44.83522 l -13.3755,15.55271 -32.23147,-28.80297 z"
       id="path3121"
       inkscape:connector-curvature="0" />
    <path
       style="fill:#7f7f7f;fill-opacity:1;stroke:#000000;stroke-width:0.7086615;stroke-miterlimit:4;stroke-opacity:1;stroke-dasharray:none;overflow:visible"
       d="m 549.38505,595.76815 0,-153.52603 46.47375,15.58653 46.47375,15.58654 -3.00379,80.23083 c -1.65208,44.12693 -4.32629,106.19971 -5.94264,137.93947 l -2.93888,57.70863 -40.53107,0 -40.53112,0 0,-153.52597 z"
       id="path3123"
       inkscape:connector-curvature="0" />
    <path
       style="fill:#7f7f7f;fill-opacity:1;stroke:#000000;stroke-width:0.7086615;stroke-miterlimit:4;stroke-opacity:1;stroke-dasharray:none;overflow:visible"
       d="m 116.73604,663.83553 c -1.85366,-47.00226 -3.37039,-109.99186 -3.37039,-139.97692 l 0,-54.51833 41.03718,-13.45341 41.03709,-13.45336 0,44.88043 c 0,24.68424 1.52125,93.72787 3.38056,153.43027 l 3.38057,108.54991 -41.04729,0 -41.04729,0 -3.37043,-85.45859 z"
       id="path3125"
       inkscape:connector-curvature="0" />
  </g>
</svg>
