<?xml version="1.0" encoding="UTF-8" standalone="no"?>
<!-- Generator: Adobe Illustrator 12.0.0, SVG Export Plug-In . SVG Version: 6.00 Build 51448)  -->

<svg
   xmlns:dc="http://purl.org/dc/elements/1.1/"
   xmlns:cc="http://creativecommons.org/ns#"
   xmlns:rdf="http://www.w3.org/1999/02/22-rdf-syntax-ns#"
   xmlns:svg="http://www.w3.org/2000/svg"
   xmlns="http://www.w3.org/2000/svg"
   xmlns:xlink="http://www.w3.org/1999/xlink"
   xmlns:sodipodi="http://sodipodi.sourceforge.net/DTD/sodipodi-0.dtd"
   xmlns:inkscape="http://www.inkscape.org/namespaces/inkscape"
   version="1.0"
   id="Layer_1"
   width="1052.3622"
   height="744.09448"
   viewBox="0 0 214.539 47.222"
   overflow="visible"
   enable-background="new 0 0 214.539 47.222"
   xml:space="preserve"
   sodipodi:version="0.32"
   inkscape:version="0.48.4 r9939"
   sodipodi:docname="isti201311.svg"
   inkscape:output_extension="org.inkscape.output.svg.inkscape"
   style="overflow:visible"
   inkscape:export-filename="/Users/cignoni/Documents/Art/VCGlogo/isti201311.png"
   inkscape:export-xdpi="800.60999"
   inkscape:export-ydpi="800.60999"><metadata
   id="metadata43"><rdf:RDF><cc:Work
       rdf:about=""><dc:format>image/svg+xml</dc:format><dc:type
         rdf:resource="http://purl.org/dc/dcmitype/StillImage" /><dc:title /></cc:Work></rdf:RDF></metadata><defs
   id="defs41"><linearGradient
   id="linearGradient3532"><stop
     id="stop3534"
     offset="0"
     style="stop-color:#000000;stop-opacity:0;" /><stop
     style="stop-color:#000000;stop-opacity:0.69672132;"
     offset="0.45330933"
     id="stop3538" /><stop
     id="stop3536"
     offset="1"
     style="stop-color:#000000;stop-opacity:0;" /></linearGradient><linearGradient
   id="linearGradient3482"><stop
     id="stop3486"
     offset="0"
     style="stop-color:#ffffff;stop-opacity:0;" /><stop
     style="stop-color:#ffffff;stop-opacity:0.20491803;"
     offset="0.99413878"
     id="stop3488" /><stop
     style="stop-color:#ffffff;stop-opacity:0;"
     offset="1"
     id="stop3490" /></linearGradient><linearGradient
   id="linearGradient3425"><stop
     style="stop-color:#c2a078;stop-opacity:0.46666667;"
     offset="0"
     id="stop3427" /><stop
     style="stop-color:#3c3c84;stop-opacity:0;"
     offset="1"
     id="stop3429" /></linearGradient><linearGradient
   id="linearGradient3296"><stop
     style="stop-color:#606060;stop-opacity:0.71372551;"
     offset="0"
     id="stop3298" /><stop
     style="stop-color:#3c3c84;stop-opacity:0;"
     offset="1"
     id="stop3300" /></linearGradient><linearGradient
   id="linearGradient3284"><stop
     id="stop3286"
     offset="0"
     style="stop-color:#fdfdfd;stop-opacity:0;" /><stop
     style="stop-color:#ffffff;stop-opacity:0;"
     offset="0.8724075"
     id="stop3290" /><stop
     id="stop3292"
     offset="0.99413878"
     style="stop-color:#ffffff;stop-opacity:0.4180328;" /><stop
     id="stop3288"
     offset="1"
     style="stop-color:#ffffff;stop-opacity:0;" /></linearGradient><linearGradient
   id="linearGradient3258"><stop
     id="stop3260"
     offset="0"
     style="stop-color:#bea96f;stop-opacity:0.59836066;" /><stop
     id="stop3262"
     offset="1"
     style="stop-color:#3c3c84;stop-opacity:0;" /></linearGradient><linearGradient
   id="linearGradient3236"><stop
     id="stop3238"
     offset="0"
     style="stop-color:#3c3c84;stop-opacity:1;" /><stop
     style="stop-color:#3c3c84;stop-opacity:0.49803922;"
     offset="0.5"
     id="stop3240" /><stop
     id="stop3242"
     offset="0.59423375"
     style="stop-color:#3c3c84;stop-opacity:0.24705882;" /><stop
     style="stop-color:#3c3c84;stop-opacity:0.12156863;"
     offset="0.73506361"
     id="stop3244" /><stop
     id="stop3246"
     offset="1"
     style="stop-color:#3c3c84;stop-opacity:0;" /></linearGradient><linearGradient
   id="linearGradient3198"><stop
     style="stop-color:#3c3c84;stop-opacity:1;"
     offset="0"
     id="stop3200" /><stop
     id="stop3230"
     offset="0.5"
     style="stop-color:#3c3c84;stop-opacity:0.49803922;" /><stop
     style="stop-color:#3c3c84;stop-opacity:0.24705882;"
     offset="0.75"
     id="stop3232" /><stop
     id="stop3234"
     offset="0.875"
     style="stop-color:#ffffff;stop-opacity:1;" /><stop
     style="stop-color:#3c3c84;stop-opacity:0;"
     offset="1"
     id="stop3202" /></linearGradient><inkscape:perspective
   sodipodi:type="inkscape:persp3d"
   inkscape:vp_x="0 : 23.611 : 1"
   inkscape:vp_y="0 : 1000 : 0"
   inkscape:vp_z="214.539 : 23.611 : 1"
   inkscape:persp3d-origin="107.2695 : 15.740667 : 1"
   id="perspective45" />
	
	
	
	<radialGradient
   gradientUnits="userSpaceOnUse"
   r="30.714899"
   cy="14.5903"
   cx="54.734402"
   id="radialGradient2466">
		<stop
   id="stop2468"
   style="stop-color:#FFFFFF"
   offset="0" />
		<stop
   id="stop2470"
   style="stop-color:#7979B9"
   offset="1" />
	</radialGradient>
	
	
<radialGradient
   inkscape:collect="always"
   xlink:href="#linearGradient3198"
   id="radialGradient3226"
   cx="122.4965"
   cy="23.296516"
   fx="122.4965"
   fy="23.296516"
   r="30.9605"
   gradientTransform="matrix(1,0,0,0.7524583,0,5.7668598)"
   gradientUnits="userSpaceOnUse" /><radialGradient
   inkscape:collect="always"
   xlink:href="#linearGradient3284"
   id="radialGradient3282"
   cx="122.8275"
   cy="62.341057"
   fx="122.8275"
   fy="62.341057"
   r="30.960501"
   gradientTransform="matrix(2.0494672,-2.2162323e-7,2.2162323e-7,2.0494672,-128.90344,-63.686898)"
   gradientUnits="userSpaceOnUse" /><radialGradient
   inkscape:collect="always"
   xlink:href="#linearGradient3296"
   id="radialGradient3302"
   cx="44.850128"
   cy="0.41408569"
   fx="44.850128"
   fy="0.41408569"
   r="11.212532"
   gradientTransform="matrix(1,0,0,0.1363636,0,3.5854706)"
   gradientUnits="userSpaceOnUse" /><filter
   inkscape:collect="always"
   id="filter3320"
   x="-0.039911308"
   width="1.0798226"
   y="-0.29268292"
   height="1.5853658"><feGaussianBlur
     inkscape:collect="always"
     stdDeviation="0.37292235"
     id="feGaussianBlur3322" /></filter><radialGradient
   inkscape:collect="always"
   xlink:href="#linearGradient3284"
   id="radialGradient3374"
   gradientUnits="userSpaceOnUse"
   gradientTransform="matrix(2.0494672,-2.2162323e-7,2.2162323e-7,2.0494672,-128.90344,-63.686898)"
   cx="122.8275"
   cy="62.341057"
   fx="122.8275"
   fy="62.341057"
   r="30.960501" />
	
<radialGradient
   inkscape:collect="always"
   xlink:href="#linearGradient3284"
   id="radialGradient3381"
   gradientUnits="userSpaceOnUse"
   gradientTransform="matrix(2.0494672,-2.2162323e-7,2.2162323e-7,2.0494672,-128.90344,-63.686898)"
   cx="122.8275"
   cy="62.341057"
   fx="122.8275"
   fy="62.341057"
   r="30.960501" /><radialGradient
   inkscape:collect="always"
   xlink:href="#linearGradient3284"
   id="radialGradient3383"
   gradientUnits="userSpaceOnUse"
   gradientTransform="matrix(2.0494672,-2.2162323e-7,2.2162323e-7,2.0494672,-128.90344,-63.686898)"
   cx="122.8275"
   cy="62.341057"
   fx="122.8275"
   fy="62.341057"
   r="30.960501" /><radialGradient
   inkscape:collect="always"
   xlink:href="#linearGradient3284"
   id="radialGradient3385"
   gradientUnits="userSpaceOnUse"
   gradientTransform="matrix(2.0494672,-2.2162323e-7,2.2162323e-7,2.0494672,-128.90344,-63.686898)"
   cx="122.8275"
   cy="62.341057"
   fx="122.8275"
   fy="62.341057"
   r="30.960501" /><radialGradient
   inkscape:collect="always"
   xlink:href="#linearGradient3284"
   id="radialGradient3387"
   gradientUnits="userSpaceOnUse"
   gradientTransform="matrix(2.0494672,-2.2162323e-7,2.2162323e-7,2.0494672,-128.90344,-63.686898)"
   cx="122.8275"
   cy="62.341057"
   fx="122.8275"
   fy="62.341057"
   r="30.960501" /><radialGradient
   inkscape:collect="always"
   xlink:href="#linearGradient3284"
   id="radialGradient3389"
   gradientUnits="userSpaceOnUse"
   gradientTransform="matrix(2.0494672,-2.2162323e-7,2.2162323e-7,2.0494672,-128.90344,-63.686898)"
   cx="122.8275"
   cy="62.341057"
   fx="122.8275"
   fy="62.341057"
   r="30.960501" />
	

		
		
		
	<radialGradient
   inkscape:collect="always"
   xlink:href="#linearGradient3425"
   id="radialGradient3431"
   cx="45.713402"
   cy="3.9494393"
   fx="45.713402"
   fy="3.9494393"
   r="9.947936"
   gradientTransform="matrix(1.3320531,0,0,0.4098623,-15.023232,-1.5431711e-2)"
   gradientUnits="userSpaceOnUse" /><radialGradient
   inkscape:collect="always"
   xlink:href="#linearGradient3296"
   id="radialGradient3449"
   gradientUnits="userSpaceOnUse"
   gradientTransform="matrix(1,0,0,0.1363636,0,3.5854706)"
   cx="44.850128"
   cy="0.41408569"
   fx="44.850128"
   fy="0.41408569"
   r="11.212532" /><radialGradient
   inkscape:collect="always"
   xlink:href="#linearGradient3284"
   id="radialGradient3451"
   gradientUnits="userSpaceOnUse"
   gradientTransform="matrix(2.6662775,5.6198688e-7,-5.7412679e-7,2.5618341,-204.54988,-100.10632)"
   cx="122.64141"
   cy="71.080559"
   fx="122.64141"
   fy="71.080559"
   r="30.960501" /><radialGradient
   inkscape:collect="always"
   xlink:href="#linearGradient3284"
   id="radialGradient3453"
   gradientUnits="userSpaceOnUse"
   gradientTransform="matrix(2.0494672,-2.2162323e-7,2.2162323e-7,2.0494672,-128.90344,-63.686898)"
   cx="122.8275"
   cy="62.341057"
   fx="122.8275"
   fy="62.341057"
   r="30.960501" /><radialGradient
   inkscape:collect="always"
   xlink:href="#linearGradient3284"
   id="radialGradient3455"
   gradientUnits="userSpaceOnUse"
   gradientTransform="matrix(2.0494672,-2.2162323e-7,2.2162323e-7,2.0494672,-128.90344,-63.686898)"
   cx="122.8275"
   cy="62.341057"
   fx="122.8275"
   fy="62.341057"
   r="30.960501" /><radialGradient
   inkscape:collect="always"
   xlink:href="#linearGradient3284"
   id="radialGradient3459"
   gradientUnits="userSpaceOnUse"
   gradientTransform="matrix(2.0494672,-2.2162323e-7,2.2162323e-7,2.0494672,-128.90344,-63.686898)"
   cx="122.8275"
   cy="62.341057"
   fx="122.8275"
   fy="62.341057"
   r="30.960501" /><radialGradient
   inkscape:collect="always"
   xlink:href="#linearGradient3425"
   id="radialGradient3461"
   gradientUnits="userSpaceOnUse"
   gradientTransform="matrix(1.3320531,0,0,0.4098623,8.0577811,-1.5431711e-2)"
   cx="45.986195"
   cy="7.7721233"
   fx="45.986195"
   fy="7.7721233"
   r="9.947936" /><radialGradient
   inkscape:collect="always"
   xlink:href="#linearGradient3296"
   id="radialGradient3514"
   gradientUnits="userSpaceOnUse"
   gradientTransform="matrix(1,0,0,0.1363636,0,3.5854706)"
   cx="44.850128"
   cy="0.41408569"
   fx="44.850128"
   fy="0.41408569"
   r="11.212532" /><radialGradient
   inkscape:collect="always"
   xlink:href="#linearGradient3284"
   id="radialGradient3516"
   gradientUnits="userSpaceOnUse"
   gradientTransform="matrix(2.6662775,5.6198688e-7,-5.7412679e-7,2.5618341,-204.54988,-100.10632)"
   cx="122.64141"
   cy="71.080559"
   fx="122.64141"
   fy="71.080559"
   r="30.960501" /><radialGradient
   inkscape:collect="always"
   xlink:href="#linearGradient3284"
   id="radialGradient3518"
   gradientUnits="userSpaceOnUse"
   gradientTransform="matrix(2.0494672,-2.2162323e-7,2.2162323e-7,2.0494672,-128.90344,-63.686898)"
   cx="122.8275"
   cy="62.341057"
   fx="122.8275"
   fy="62.341057"
   r="30.960501" /><radialGradient
   inkscape:collect="always"
   xlink:href="#linearGradient3284"
   id="radialGradient3520"
   gradientUnits="userSpaceOnUse"
   gradientTransform="matrix(2.0494672,-2.2162323e-7,2.2162323e-7,2.0494672,-128.90344,-63.686898)"
   cx="122.8275"
   cy="62.341057"
   fx="122.8275"
   fy="62.341057"
   r="30.960501" /><radialGradient
   inkscape:collect="always"
   xlink:href="#linearGradient3284"
   id="radialGradient3522"
   gradientUnits="userSpaceOnUse"
   gradientTransform="matrix(2.0494672,-2.2162323e-7,2.2162323e-7,2.0494672,-128.90344,-63.686898)"
   cx="122.8275"
   cy="62.341057"
   fx="122.8275"
   fy="62.341057"
   r="30.960501" /><radialGradient
   inkscape:collect="always"
   xlink:href="#linearGradient3425"
   id="radialGradient3524"
   gradientUnits="userSpaceOnUse"
   gradientTransform="matrix(1.3320531,0,0,0.4098623,30.482845,-1.5431711e-2)"
   cx="45.986195"
   cy="7.7721233"
   fx="45.986195"
   fy="7.7721233"
   r="9.947936" /><linearGradient
   inkscape:collect="always"
   xlink:href="#linearGradient3532"
   id="linearGradient3530"
   x1="91.738899"
   y1="2.0734005"
   x2="91.738899"
   y2="-7.5705957"
   gradientUnits="userSpaceOnUse" /><inkscape:perspective
   id="perspective3039"
   inkscape:persp3d-origin="0.5 : 0.33333333 : 1"
   inkscape:vp_z="1 : 0.5 : 1"
   inkscape:vp_y="0 : 1000 : 0"
   inkscape:vp_x="0 : 0.5 : 1"
   sodipodi:type="inkscape:persp3d" /><inkscape:perspective
   id="perspective4112"
   inkscape:persp3d-origin="0.5 : 0.33333333 : 1"
   inkscape:vp_z="1 : 0.5 : 1"
   inkscape:vp_y="0 : 1000 : 0"
   inkscape:vp_x="0 : 0.5 : 1"
   sodipodi:type="inkscape:persp3d" /><inkscape:perspective
   id="perspective4112-7"
   inkscape:persp3d-origin="0.5 : 0.33333333 : 1"
   inkscape:vp_z="1 : 0.5 : 1"
   inkscape:vp_y="0 : 1000 : 0"
   inkscape:vp_x="0 : 0.5 : 1"
   sodipodi:type="inkscape:persp3d" /></defs><sodipodi:namedview
   inkscape:window-height="1001"
   inkscape:window-width="1920"
   inkscape:pageshadow="2"
   inkscape:pageopacity="0.0"
   guidetolerance="10.0"
   gridtolerance="10.0"
   objecttolerance="10.0"
   borderopacity="1.0"
   bordercolor="#666666"
   pagecolor="#ffffff"
   id="base"
   showgrid="true"
   inkscape:zoom="4.0000001"
   inkscape:cx="144.71817"
   inkscape:cy="166.83025"
   inkscape:window-x="-9"
   inkscape:window-y="-9"
   inkscape:current-layer="Layer_1"
   inkscape:snap-global="true"
   inkscape:window-maximized="1"
   inkscape:snap-center="false"><inkscape:grid
     type="xygrid"
     id="grid2416" /></sodipodi:namedview>



<rect
   style="fill:#cccccc;stroke:#000000;stroke-width:0.14447071;stroke-miterlimit:4;stroke-opacity:1;stroke-dasharray:none"
   id="rect3133"
   width="12.155404"
   height="12.155404"
   x="7.4920101"
   y="21.059584"
   ry="0.22100733" /><rect
   style="opacity:1;fill:#000000;fill-opacity:1;stroke:none;stroke-width:3;stroke-linecap:round;stroke-linejoin:round;stroke-miterlimit:4;stroke-dasharray:none;stroke-opacity:1"
   id="rect3334"
   width="25.483028"
   height="23.444386"
   x="100.91279"
   y="-37.130909" /><path
   sodipodi:type="arc"
   style="opacity:1;fill:url(#radialGradient3302);fill-opacity:1;stroke:none;stroke-width:3;stroke-linecap:round;stroke-linejoin:round;stroke-miterlimit:4;stroke-dasharray:none;stroke-opacity:1;filter:url(#filter3320)"
   id="path3294"
   sodipodi:cx="44.850128"
   sodipodi:cy="4.1515975"
   sodipodi:rx="11.212532"
   sodipodi:ry="1.5289817"
   d="M 56.06266,4.1515975 A 11.212532,1.5289817 0 1 1 33.637596,4.1515975 A 11.212532,1.5289817 0 1 1 56.06266,4.1515975 z"
   transform="translate(2.0386437,1.5289816)" /><g
   style="fill:#3c3c84;fill-opacity:1;overflow:visible"
   id="g2438"
   transform="matrix(0.3212862,0,0,0.3212862,0.8848379,-32.796672)"
   inkscape:export-filename="/Users/cignoni/Documents/Progetti/ArcheoFOSS2009/sito_ver4_2/archeo-foss/Immagini/logo_isti.png"
   inkscape:export-xdpi="55.34"
   inkscape:export-ydpi="55.34">
	<g
   id="g2440"
   style="fill:#3c3c84;fill-opacity:1">
		<path
   clip-rule="evenodd"
   d="M 153.457,6.663 L 148.538,17.657 C 144.344,16.065 140.174,14.448 135.518,13.317 L 135.228,43.699 L 126.547,43.699 L 126.547,12.45 C 121.99,10.843 116.997,11.741 117.577,17.657 C 118.059,22.571 123.292,25.701 124.811,31.547 C 126.55,38.241 123.767,41.678 120.181,46.593 L 113.815,40.806 C 122.207,30.796 104.75,25.931 109.186,13.608 C 105.146,13.91 100.529,16.138 96.744,17.658 L 91.536,6.664 C 107.216,-2.37 137.668,-2.071 153.457,6.663 z"
   id="path2442"
   style="fill:#3c3c84;fill-opacity:1;fill-rule:evenodd"
   sodipodi:nodetypes="ccccccsscccccc" />
		<path
   clip-rule="evenodd"
   d="M 106.583,15.633 L 107.162,43.699 L 99.349,43.699 L 98.77,18.236 C 101.41,17.190005 104.01441,16.321957 106.583,15.633 z"
   id="path2444"
   style="fill:#3c3c84;fill-opacity:1;fill-rule:evenodd"
   sodipodi:nodetypes="ccccc" />
		<path
   clip-rule="evenodd"
   d="M 137.833,15.633 C 140.78114,16.461484 143.70707,17.345483 146.514,18.527 L 145.645,43.7 L 137.833,43.7 L 137.833,15.633 z"
   id="path2446"
   style="fill:#3c3c84;fill-opacity:1;fill-rule:evenodd"
   sodipodi:nodetypes="ccccc" />
	</g>
</g><path
   style="fill:#3c3c84;fill-opacity:1;fill-rule:evenodd"
   d="M 46.233079,-10.469289 C 42.523309,-10.481258 38.819953,-9.7799633 36.30107,-8.3287152 L 37.976579,-4.7929455 C 39.192647,-5.2813001 40.673048,-6.0019214 41.971043,-6.0989505 C 40.545818,-2.1397401 46.158035,-0.57434505 43.4618,2.6417269 L 45.506813,4.5019879 C 46.658945,2.9228659 47.549913,1.8172739 46.991199,-0.33341605 C 46.503164,-2.2116561 44.820732,-3.2141461 44.665873,-4.7929455 C 44.479527,-6.6936734 46.087724,-6.9847629 47.551826,-6.4684544 L 47.551826,3.5718579 L 50.335846,3.5718579 L 50.431407,-6.1881411 C 51.927316,-5.8247674 53.269521,-5.3044326 54.616994,-4.7929455 L 56.196942,-8.3287152 C 53.660549,-9.7317718 49.942849,-10.45732 46.233079,-10.469289 z M 41.136474,-5.4427626 C 40.311222,-5.221411 39.474591,-4.9442576 38.626396,-4.6081936 L 38.811148,3.5718579 L 41.321226,3.5718579 L 41.136474,-5.4427626 z M 51.176786,-5.4427626 L 51.176786,3.5718579 L 53.686864,3.5718579 L 53.967177,-4.5126322 C 53.065349,-4.8922375 52.123982,-5.1765812 51.176786,-5.4427626 z"
   id="path3212" /><g
   style="fill:url(#radialGradient3389);fill-opacity:1"
   id="g3266"
   transform="matrix(0.3212862,0,0,0.3212862,6.8925705,-10.468575)">
		<path
   sodipodi:nodetypes="ccccccsscccccc"
   style="fill:url(#radialGradient3381);fill-opacity:1;fill-rule:evenodd"
   id="path3268"
   d="M 153.457,6.663 L 148.538,17.657 C 144.344,16.065 140.174,14.448 135.518,13.317 L 135.228,43.699 L 126.547,43.699 L 126.547,12.45 C 121.99,10.843 116.997,11.741 117.577,17.657 C 118.059,22.571 123.292,25.701 124.811,31.547 C 126.55,38.241 123.767,41.678 120.181,46.593 L 113.815,40.806 C 122.207,30.796 104.75,25.931 109.186,13.608 C 105.146,13.91 100.529,16.138 96.744,17.658 L 91.536,6.664 C 107.216,-2.37 137.668,-2.071 153.457,6.663 z"
   clip-rule="evenodd" />
		<path
   sodipodi:nodetypes="ccccc"
   style="fill:url(#radialGradient3383);fill-opacity:1;fill-rule:evenodd"
   id="path3270"
   d="M 106.583,15.633 L 107.162,43.699 L 99.349,43.699 L 98.77,18.236 C 101.41,17.190005 104.01441,16.321957 106.583,15.633 z"
   clip-rule="evenodd" />
		<path
   sodipodi:nodetypes="ccccc"
   style="fill:url(#radialGradient3385);fill-opacity:1;fill-rule:evenodd"
   id="path3272"
   d="M 137.833,15.633 C 140.78114,16.461484 143.70707,17.345483 146.514,18.527 L 145.645,43.7 L 137.833,43.7 L 137.833,15.633 z"
   clip-rule="evenodd" />
	<path
   clip-rule="evenodd"
   d="M 153.457,6.663 L 148.538,17.657 C 144.344,16.065 140.174,14.448 135.518,13.317 L 135.228,43.699 L 126.547,43.699 L 126.547,12.45 C 121.99,10.843 116.997,11.741 117.577,17.657 C 118.059,22.571 123.292,25.701 124.811,31.547 C 126.55,38.241 123.767,41.678 120.181,46.593 L 113.815,40.806 C 122.207,30.796 104.75,25.931 109.186,13.608 C 105.146,13.91 100.529,16.138 96.744,17.658 L 91.536,6.664 C 107.216,-2.37 137.668,-2.071 153.457,6.663 z"
   id="path3274"
   style="fill:url(#radialGradient3387);fill-opacity:1;fill-rule:evenodd"
   sodipodi:nodetypes="ccccccsscccccc" /></g><path
   id="path3423"
   d="M 46.233079,-10.469289 C 42.523309,-10.481258 38.819953,-9.7799633 36.30107,-8.3287152 L 37.976579,-4.7929455 C 39.192647,-5.2813001 40.673048,-6.0019214 41.971043,-6.0989505 C 40.545818,-2.1397401 46.158035,-0.57434505 43.4618,2.6417269 L 45.506813,4.5019879 C 46.658945,2.9228659 47.549913,1.8172739 46.991199,-0.33341605 C 46.503164,-2.2116561 44.820732,-3.2141461 44.665873,-4.7929455 C 44.479527,-6.6936734 46.087724,-6.9847629 47.551826,-6.4684544 L 47.551826,3.5718579 L 50.335846,3.5718579 L 50.431407,-6.1881411 C 51.927316,-5.8247674 53.269521,-5.3044326 54.616994,-4.7929455 L 56.196942,-8.3287152 C 53.660549,-9.7317718 49.942849,-10.45732 46.233079,-10.469289 z M 41.136474,-5.4427626 C 40.311222,-5.221411 39.474591,-4.9442576 38.626396,-4.6081936 L 38.811148,3.5718579 L 41.321226,3.5718579 L 41.136474,-5.4427626 z M 51.176786,-5.4427626 L 51.176786,3.5718579 L 53.686864,3.5718579 L 53.967177,-4.5126322 C 53.065349,-4.8922375 52.123982,-5.1765812 51.176786,-5.4427626 z"
   style="fill:url(#radialGradient3431);fill-opacity:1;fill-rule:evenodd" /><path
   d="M 56.06266,4.1515975 A 11.212532,1.5289817 0 1 1 33.637596,4.1515975 A 11.212532,1.5289817 0 1 1 56.06266,4.1515975 z"
   sodipodi:ry="1.5289817"
   sodipodi:rx="11.212532"
   sodipodi:cy="4.1515975"
   sodipodi:cx="44.850128"
   id="path3433"
   style="opacity:1;fill:url(#radialGradient3449);fill-opacity:1;stroke:none;stroke-width:3;stroke-linecap:round;stroke-linejoin:round;stroke-miterlimit:4;stroke-dasharray:none;stroke-opacity:1;filter:url(#filter3320)"
   sodipodi:type="arc"
   transform="translate(25.119657,1.5289816)" /><path
   id="path3435"
   d="M 69.314092,-10.469289 C 65.604322,-10.481258 61.900966,-9.7799633 59.382083,-8.3287152 L 61.057592,-4.7929455 C 62.27366,-5.2813001 63.754061,-6.0019214 65.052056,-6.0989505 C 63.626831,-2.1397401 69.239048,-0.57434505 66.542813,2.6417269 L 68.587826,4.5019879 C 69.739958,2.9228659 70.630926,1.8172739 70.072212,-0.33341605 C 69.584177,-2.2116561 67.901745,-3.2141461 67.746886,-4.7929455 C 67.56054,-6.6936734 69.168737,-6.9847629 70.632839,-6.4684544 L 70.632839,3.5718579 L 73.416859,3.5718579 L 73.51242,-6.1881411 C 75.008329,-5.8247674 76.350534,-5.3044326 77.698007,-4.7929455 L 79.277955,-8.3287152 C 76.741562,-9.7317718 73.023862,-10.45732 69.314092,-10.469289 z M 64.217487,-5.4427626 C 63.392235,-5.221411 62.555604,-4.9442576 61.707409,-4.6081936 L 61.892161,3.5718579 L 64.402239,3.5718579 L 64.217487,-5.4427626 z M 74.257799,-5.4427626 L 74.257799,3.5718579 L 76.767877,3.5718579 L 77.04819,-4.5126322 C 76.146362,-4.8922375 75.204995,-5.1765812 74.257799,-5.4427626 z"
   style="fill:#3c3c84;fill-opacity:1;fill-rule:evenodd" /><g
   transform="matrix(0.3212862,0,0,0.3212862,29.973584,-10.468575)"
   id="g3437"
   style="fill:url(#radialGradient3459);fill-opacity:1">
		<path
   clip-rule="evenodd"
   d="M 153.457,6.663 L 148.538,17.657 C 144.344,16.065 140.174,14.448 135.518,13.317 L 135.228,43.699 L 126.547,43.699 L 126.547,12.45 C 121.99,10.843 116.997,11.741 117.577,17.657 C 118.059,22.571 123.292,25.701 124.811,31.547 C 126.55,38.241 123.767,41.678 120.181,46.593 L 113.815,40.806 C 122.207,30.796 104.75,25.931 109.186,13.608 C 105.146,13.91 100.529,16.138 96.744,17.658 L 91.536,6.664 C 107.216,-2.37 137.668,-2.071 153.457,6.663 z"
   id="path3439"
   style="fill:url(#radialGradient3451);fill-opacity:1;fill-rule:evenodd"
   sodipodi:nodetypes="ccccccsscccccc" />
		<path
   clip-rule="evenodd"
   d="M 106.583,15.633 L 107.162,43.699 L 99.349,43.699 L 98.77,18.236 C 101.41,17.190005 104.01441,16.321957 106.583,15.633 z"
   id="path3441"
   style="fill:url(#radialGradient3453);fill-opacity:1;fill-rule:evenodd"
   sodipodi:nodetypes="ccccc" />
		<path
   clip-rule="evenodd"
   d="M 137.833,15.633 C 140.78114,16.461484 143.70707,17.345483 146.514,18.527 L 145.645,43.7 L 137.833,43.7 L 137.833,15.633 z"
   id="path3443"
   style="fill:url(#radialGradient3455);fill-opacity:1;fill-rule:evenodd"
   sodipodi:nodetypes="ccccc" />
	</g><path
   style="fill:url(#radialGradient3461);fill-opacity:1;fill-rule:evenodd"
   d="M 69.314092,-10.469289 C 65.604322,-10.481258 61.900966,-9.7799633 59.382083,-8.3287152 L 61.057592,-4.7929455 C 62.27366,-5.2813001 63.754061,-6.0019214 65.052056,-6.0989505 C 63.626831,-2.1397401 69.239048,-0.57434505 66.542813,2.6417269 L 68.587826,4.5019879 C 69.739958,2.9228659 70.630926,1.8172739 70.072212,-0.33341605 C 69.584177,-2.2116561 67.901745,-3.2141461 67.746886,-4.7929455 C 67.56054,-6.6936734 69.168737,-6.9847629 70.632839,-6.4684544 L 70.632839,3.5718579 L 73.416859,3.5718579 L 73.51242,-6.1881411 C 75.008329,-5.8247674 76.350534,-5.3044326 77.698007,-4.7929455 L 79.277955,-8.3287152 C 76.741562,-9.7317718 73.023862,-10.45732 69.314092,-10.469289 z M 64.217487,-5.4427626 C 63.392235,-5.221411 62.555604,-4.9442576 61.707409,-4.6081936 L 61.892161,3.5718579 L 64.402239,3.5718579 L 64.217487,-5.4427626 z M 74.257799,-5.4427626 L 74.257799,3.5718579 L 76.767877,3.5718579 L 77.04819,-4.5126322 C 76.146362,-4.8922375 75.204995,-5.1765812 74.257799,-5.4427626 z"
   id="path3447" /><path
   transform="translate(47.544721,1.5289816)"
   sodipodi:type="arc"
   style="opacity:1;fill:url(#radialGradient3514);fill-opacity:1;stroke:none;stroke-width:3;stroke-linecap:round;stroke-linejoin:round;stroke-miterlimit:4;stroke-dasharray:none;stroke-opacity:1;filter:url(#filter3320)"
   id="path3500"
   sodipodi:cx="44.850128"
   sodipodi:cy="4.1515975"
   sodipodi:rx="11.212532"
   sodipodi:ry="1.5289817"
   d="M 56.06266,4.1515975 A 11.212532,1.5289817 0 1 1 33.637596,4.1515975 A 11.212532,1.5289817 0 1 1 56.06266,4.1515975 z" /><path
   style="fill:#3c3c84;fill-opacity:1;fill-rule:evenodd"
   d="M 91.739156,-10.469289 C 88.029386,-10.481258 84.32603,-9.7799633 81.807147,-8.3287152 L 83.482656,-4.7929455 C 84.698724,-5.2813001 86.179125,-6.0019214 87.47712,-6.0989505 C 86.051895,-2.1397401 91.664112,-0.57434505 88.967877,2.6417269 L 91.01289,4.5019879 C 92.165022,2.9228659 93.05599,1.8172739 92.497276,-0.33341605 C 92.009241,-2.2116561 90.326809,-3.2141461 90.17195,-4.7929455 C 89.985604,-6.6936734 91.593801,-6.9847629 93.057903,-6.4684544 L 93.057903,3.5718579 L 95.841923,3.5718579 L 95.937484,-6.1881411 C 97.433393,-5.8247674 98.775598,-5.3044326 100.12307,-4.7929455 L 101.70302,-8.3287152 C 99.166626,-9.7317718 95.448926,-10.45732 91.739156,-10.469289 z M 86.642551,-5.4427626 C 85.817299,-5.221411 84.980668,-4.9442576 84.132473,-4.6081936 L 84.317225,3.5718579 L 86.827303,3.5718579 L 86.642551,-5.4427626 z M 96.682863,-5.4427626 L 96.682863,3.5718579 L 99.192941,3.5718579 L 99.473254,-4.5126322 C 98.571426,-4.8922375 97.630059,-5.1765812 96.682863,-5.4427626 z"
   id="path3502" /><g
   style="fill:url(#radialGradient3522);fill-opacity:1"
   id="g3504"
   transform="matrix(0.3212862,0,0,0.3212862,52.398648,-10.468575)">
		<path
   sodipodi:nodetypes="ccccccsscccccc"
   style="fill:url(#radialGradient3516);fill-opacity:1;fill-rule:evenodd"
   id="path3506"
   d="M 153.457,6.663 L 148.538,17.657 C 144.344,16.065 140.174,14.448 135.518,13.317 L 135.228,43.699 L 126.547,43.699 L 126.547,12.45 C 121.99,10.843 116.997,11.741 117.577,17.657 C 118.059,22.571 123.292,25.701 124.811,31.547 C 126.55,38.241 123.767,41.678 120.181,46.593 L 113.815,40.806 C 122.207,30.796 104.75,25.931 109.186,13.608 C 105.146,13.91 100.529,16.138 96.744,17.658 L 91.536,6.664 C 107.216,-2.37 137.668,-2.071 153.457,6.663 z"
   clip-rule="evenodd" />
		<path
   sodipodi:nodetypes="ccccc"
   style="fill:url(#radialGradient3518);fill-opacity:1;fill-rule:evenodd"
   id="path3508"
   d="M 106.583,15.633 L 107.162,43.699 L 99.349,43.699 L 98.77,18.236 C 101.41,17.190005 104.01441,16.321957 106.583,15.633 z"
   clip-rule="evenodd" />
		<path
   sodipodi:nodetypes="ccccc"
   style="fill:url(#radialGradient3520);fill-opacity:1;fill-rule:evenodd"
   id="path3510"
   d="M 137.833,15.633 C 140.78114,16.461484 143.70707,17.345483 146.514,18.527 L 145.645,43.7 L 137.833,43.7 L 137.833,15.633 z"
   clip-rule="evenodd" />
	</g><path
   id="path3512"
   d="M 91.739156,-10.469289 C 88.029386,-10.481258 84.32603,-9.7799633 81.807147,-8.3287152 L 83.482656,-4.7929455 C 84.698724,-5.2813001 86.179125,-6.0019214 87.47712,-6.0989505 C 86.051895,-2.1397401 91.664112,-0.57434505 88.967877,2.6417269 L 91.01289,4.5019879 C 92.165022,2.9228659 93.05599,1.8172739 92.497276,-0.33341605 C 92.009241,-2.2116561 90.326809,-3.2141461 90.17195,-4.7929455 C 89.985604,-6.6936734 91.593801,-6.9847629 93.057903,-6.4684544 L 93.057903,3.5718579 L 95.841923,3.5718579 L 95.937484,-6.1881411 C 97.433393,-5.8247674 98.775598,-5.3044326 100.12307,-4.7929455 L 101.70302,-8.3287152 C 99.166626,-9.7317718 95.448926,-10.45732 91.739156,-10.469289 z M 86.642551,-5.4427626 C 85.817299,-5.221411 84.980668,-4.9442576 84.132473,-4.6081936 L 84.317225,3.5718579 L 86.827303,3.5718579 L 86.642551,-5.4427626 z M 96.682863,-5.4427626 L 96.682863,3.5718579 L 99.192941,3.5718579 L 99.473254,-4.5126322 C 98.571426,-4.8922375 97.630059,-5.1765812 96.682863,-5.4427626 z"
   style="fill:url(#radialGradient3524);fill-opacity:1;fill-rule:evenodd" /><path
   style="fill:url(#linearGradient3530);fill-opacity:1;fill-rule:evenodd"
   d="M 91.739156,-10.469289 C 88.029386,-10.481258 84.32603,-9.7799633 81.807147,-8.3287152 L 83.482656,-4.7929455 C 84.698724,-5.2813001 86.179125,-6.0019214 87.47712,-6.0989505 C 86.051895,-2.1397401 91.664112,-0.57434505 88.967877,2.6417269 L 91.01289,4.5019879 C 92.165022,2.9228659 93.05599,1.8172739 92.497276,-0.33341605 C 92.009241,-2.2116561 90.326809,-3.2141461 90.17195,-4.7929455 C 89.985604,-6.6936734 91.593801,-6.9847629 93.057903,-6.4684544 L 93.057903,3.5718579 L 95.841923,3.5718579 L 95.937484,-6.1881411 C 97.433393,-5.8247674 98.775598,-5.3044326 100.12307,-4.7929455 L 101.70302,-8.3287152 C 99.166626,-9.7317718 95.448926,-10.45732 91.739156,-10.469289 z M 86.642551,-5.4427626 C 85.817299,-5.221411 84.980668,-4.9442576 84.132473,-4.6081936 L 84.317225,3.5718579 L 86.827303,3.5718579 L 86.642551,-5.4427626 z M 96.682863,-5.4427626 L 96.682863,3.5718579 L 99.192941,3.5718579 L 99.473254,-4.5126322 C 98.571426,-4.8922375 97.630059,-5.1765812 96.682863,-5.4427626 z"
   id="path3528" /><g
   inkscape:groupmode="layer"
   id="layer1"
   inkscape:label="CNR"><path
     style="opacity:0.54222221;fill:#7f7f7f;fill-opacity:1;stroke:#000000;stroke-width:0;stroke-linecap:round;stroke-linejoin:round;stroke-miterlimit:4;stroke-opacity:1;stroke-dasharray:none;stroke-dashoffset:0;overflow:visible"
     d="M 225 399.09375 C 200.14719 399.09375 180 419.24094 180 444.09375 C 180 468.94656 200.14719 489.09375 225 489.09375 L 225 479.09375 C 205.67003 479.09375 190 463.42372 190 444.09375 C 190 424.76378 205.67003 409.09375 225 409.09375 L 225 399.09375 z "
     transform="matrix(0.20386422,0,0,0.20386422,0,-52.236122)"
     id="path4126" /><path
     style="opacity:0.54222221;fill:#7f7f7f;fill-opacity:1;stroke:#000000;stroke-width:0;stroke-linecap:round;stroke-linejoin:round;stroke-miterlimit:4;stroke-opacity:1;stroke-dasharray:none;stroke-dashoffset:0"
     d="M 225 414.09375 C 208.43146 414.09375 195 427.52521 195 444.09375 L 205 444.09375 C 205 433.04805 213.9543 424.09375 225 424.09375 L 225 414.09375 z "
     transform="matrix(0.20386422,0,0,0.20386422,0,-52.236122)"
     id="path4061" /><path
     style="opacity:0.55555558;fill:#000000;fill-opacity:1;stroke:#000000;stroke-width:0;stroke-miterlimit:4;stroke-dasharray:none"
     d="m 13.251175,25.047532 c -1.125912,0 -2.038643,0.912731 -2.038643,2.038642 l 1.019321,0 c 0,-0.562955 0.456366,-1.019321 1.019322,-1.019321 l 0,-1.019321 z"
     id="path3049" /><path
     style="opacity:0.55555558;fill:#000000;fill-opacity:1;stroke:#000000;stroke-width:0;stroke-miterlimit:4;stroke-dasharray:none"
     d="m 13.251175,23.620482 c -1.914049,0 -3.4656923,1.551644 -3.4656923,3.465692 l 1.0193213,0 c 0,-1.351094 1.095277,-2.446371 2.446371,-2.446371 l 0,-1.019321 z"
     id="path3837" /><path
     style="opacity:0.55555558;fill:#000000;fill-opacity:1;stroke:#000000;stroke-width:0;stroke-linecap:round;stroke-linejoin:round;stroke-miterlimit:4;stroke-opacity:1;stroke-dasharray:none;stroke-dashoffset:0"
     d="m 11.212532,27.086174 0,2.796762 c 0.307208,0.224426 0.647126,0.408285 1.019321,0.522402 l 0,-3.319164 -1.019321,0 z"
     id="rect3985" /><rect
     style="opacity:0.55555558;fill:#000000;fill-opacity:1;stroke:#000000;stroke-width:0;stroke-linecap:round;stroke-linejoin:round;stroke-miterlimit:4;stroke-opacity:1;stroke-dasharray:none;stroke-dashoffset:0"
     id="rect3987"
     width="2.0386422"
     height="1.0193211"
     x="13.251175"
     y="25.04768" /><rect
     style="opacity:0.55555558;fill:#000000;fill-opacity:1;stroke:#000000;stroke-width:0;stroke-linecap:round;stroke-linejoin:round;stroke-miterlimit:4;stroke-opacity:1;stroke-dasharray:none;stroke-dashoffset:0"
     id="rect3989"
     width="2.0386422"
     height="1.0193211"
     x="13.251175"
     y="23.62063" /><path
     style="opacity:0.55555558;fill:#000000;fill-opacity:1;stroke:#000000;stroke-width:0;stroke-linecap:round;stroke-linejoin:round;stroke-miterlimit:4;stroke-opacity:1;stroke-dasharray:none;stroke-dashoffset:0"
     d="m 9.7854827,27.086174 c 0,0.960247 0.3884263,1.831451 1.0193213,2.459112 l 0,-2.459112 -1.0193213,0 z"
     id="rect3991" /><path
     id="path4005"
     d="m 18.755509,27.086326 c 0,-1.914049 -1.551643,-3.465692 -3.465692,-3.465692 l 0,1.019321 c 1.351094,0 2.446371,1.095277 2.446371,2.446371 l 1.019321,0 z"
     style="opacity:0.55555558;fill:#000000;fill-opacity:1;stroke:#000000;stroke-width:0;stroke-miterlimit:4;stroke-dasharray:none" /><path
     style="opacity:0.55555558;fill:#000000;fill-opacity:1;stroke:#000000;stroke-width:0;stroke-miterlimit:4;stroke-dasharray:none"
     d="m 13.251175,22.193433 c -2.702187,0 -4.8927419,2.190555 -4.8927419,4.892741 0,2.702186 2.1905549,4.892741 4.8927419,4.892741 l 0,-1.019321 c -2.139231,0 -3.8734208,-1.734189 -3.8734208,-3.87342 0,-2.139231 1.7341898,-3.87342 3.8734208,-3.87342 l 0,-1.019321 z"
     id="path4010" /><rect
     y="22.193583"
     x="13.251175"
     height="1.0193211"
     width="2.0386422"
     id="rect4019"
     style="opacity:0.55555558;fill:#000000;fill-opacity:1;stroke:#000000;stroke-width:0;stroke-linecap:round;stroke-linejoin:round;stroke-miterlimit:4;stroke-opacity:1;stroke-dasharray:none;stroke-dashoffset:0" /><rect
     style="opacity:0.55555558;fill:#000000;fill-opacity:1;stroke:#000000;stroke-width:0;stroke-linecap:round;stroke-linejoin:round;stroke-miterlimit:4;stroke-opacity:1;stroke-dasharray:none;stroke-dashoffset:0"
     id="rect4021"
     width="4.0772829"
     height="1.0193211"
     x="13.251175"
     y="30.959742" /><rect
     y="27.086325"
     x="17.736185"
     height="4.8927393"
     width="1.0193211"
     id="rect4023"
     style="opacity:0.55555558;fill:#000000;fill-opacity:1;stroke:#000000;stroke-width:0;stroke-linecap:round;stroke-linejoin:round;stroke-miterlimit:4;stroke-opacity:1;stroke-dasharray:none;stroke-dashoffset:0" /><path
     style="opacity:1;fill:#7f7f7f;fill-opacity:1;stroke:#000000;stroke-width:0.40000001000000002;stroke-miterlimit:4;stroke-dasharray:none;stroke-opacity:1;stroke-linecap:round;stroke-linejoin:round"
     d="M 125 365.09375 C 111.74516 365.09375 101 375.83892 101 389.09375 C 101 402.34858 111.74516 413.09375 125 413.09375 L 145 413.09375 L 145 408.09375 L 125 408.09375 C 114.50659 408.09375 106 399.58716 106 389.09375 C 106 378.60034 114.50659 370.09375 125 370.09375 L 135 370.09375 L 135 365.09375 L 125 365.09375 z M 125 372.09375 C 115.61116 372.09375 108 379.70491 108 389.09375 C 108 393.80398 109.90532 398.07743 113 401.15625 L 113 389.09375 C 113 382.46633 118.37258 377.09375 125 377.09375 L 135 377.09375 C 141.62742 377.09375 147 382.46633 147 389.09375 L 147 413.09375 L 152 413.09375 L 152 389.09375 C 152 379.70491 144.38884 372.09375 135 372.09375 L 125 372.09375 z M 125 379.09375 C 119.47715 379.09375 115 383.5709 115 389.09375 L 115 402.8125 C 116.50692 403.91336 118.1743 404.81523 120 405.375 L 120 389.09375 C 120 386.33233 122.23857 384.09375 125 384.09375 L 135 384.09375 L 135 379.09375 L 125 379.09375 z "
     transform="matrix(0.20386422,0,0,0.20386422,0,-52.236122)"
     id="path4028" /><rect
     style="opacity:0.54222221;fill:#7f7f7f;fill-opacity:1;stroke:#000000;stroke-width:0;stroke-linecap:round;stroke-linejoin:round;stroke-miterlimit:4;stroke-opacity:1;stroke-dasharray:none;stroke-dashoffset:0"
     id="rect4053"
     width="4.0772843"
     height="2.0386429"
     x="45.86945"
     y="35.240891" /><path
     style="opacity:0.54222221;fill:#7f7f7f;fill-opacity:1;stroke:#000000;stroke-width:0;stroke-linecap:round;stroke-linejoin:round;stroke-miterlimit:4;stroke-opacity:1;stroke-dasharray:none;stroke-dashoffset:0"
     d="M 225 429.09375 C 216.71573 429.09375 210 435.80948 210 444.09375 L 220 444.09375 C 220 441.33233 222.23858 439.09375 225 439.09375 L 225 429.09375 z "
     transform="matrix(0.20386422,0,0,0.20386422,0,-52.236122)"
     id="path4057" /><path
     style="opacity:0.54222221;fill:#7f7f7f;fill-opacity:1;stroke:#000000;stroke-width:0;stroke-linecap:round;stroke-linejoin:round;stroke-miterlimit:4;stroke-opacity:1;stroke-dasharray:none;stroke-dashoffset:0"
     d="M 210 444.09375 L 210 470.0625 C 213.03434 471.8178 216.41379 473.08468 220 473.6875 L 220 444.09375 L 210 444.09375 z "
     transform="matrix(0.20386422,0,0,0.20386422,0,-52.236122)"
     id="rect4069" /><path
     style="opacity:0.54222221;fill:#7f7f7f;fill-opacity:1;stroke:#000000;stroke-width:0;stroke-linecap:round;stroke-linejoin:round;stroke-miterlimit:4;stroke-opacity:1;stroke-dasharray:none;stroke-dashoffset:0"
     d="M 195 444.09375 C 195 452.96882 198.87445 460.94488 205 466.4375 L 205 444.09375 L 195 444.09375 z "
     transform="matrix(0.20386422,0,0,0.20386422,0,-52.236122)"
     id="rect4071" /><rect
     y="32.182926"
     x="45.869453"
     height="2.0386429"
     width="4.07728"
     id="rect4085"
     style="opacity:0.54222221;fill:#7f7f7f;fill-opacity:1;stroke:#000000;stroke-width:0;stroke-linecap:round;stroke-linejoin:round;stroke-miterlimit:4;stroke-opacity:1;stroke-dasharray:none;stroke-dashoffset:0" /><path
     id="path4087"
     d="m 49.946735,32.182927 c 3.377732,0 6.115927,2.738194 6.115927,6.115927 l -2.038643,0 c 0,-2.251823 -1.825461,-4.077284 -4.077284,-4.077284 l 0,-2.038643 z"
     style="opacity:0.54222221;fill:#7f7f7f;fill-opacity:1;stroke:#000000;stroke-width:0;stroke-linecap:round;stroke-linejoin:round;stroke-miterlimit:4;stroke-opacity:1;stroke-dasharray:none;stroke-dashoffset:0" /><rect
     style="opacity:0.54222221;fill:#7f7f7f;fill-opacity:1;stroke:#000000;stroke-width:0;stroke-linecap:round;stroke-linejoin:round;stroke-miterlimit:4;stroke-opacity:1;stroke-dasharray:none;stroke-dashoffset:0"
     id="rect4102"
     width="2.0386448"
     height="9.1738901"
     x="54.024021"
     y="38.298855" /><rect
     style="opacity:0.54222221;fill:#7f7f7f;fill-opacity:1;stroke:#000000;stroke-width:0;stroke-linecap:round;stroke-linejoin:round;stroke-miterlimit:4;stroke-opacity:1;stroke-dasharray:none;stroke-dashoffset:0"
     id="rect4132"
     width="7.1352377"
     height="2.0386429"
     x="45.869457"
     y="45.434101" /><rect
     y="29.124966"
     x="45.86945"
     height="2.0386429"
     width="4.0772843"
     id="rect4134"
     style="opacity:0.54222221;fill:#7f7f7f;fill-opacity:1;stroke:#000000;stroke-width:0;stroke-linecap:round;stroke-linejoin:round;stroke-miterlimit:4;stroke-opacity:1;stroke-dasharray:none;stroke-dashoffset:0" /><path
     style="opacity:1;fill:#7f7f7f;fill-opacity:1;stroke:#000000;stroke-width:0.80000002;stroke-linecap:round;stroke-linejoin:round;stroke-miterlimit:4;stroke-opacity:1;stroke-dasharray:none;stroke-dashoffset:0;overflow:visible"
     d="M 335 399.09375 C 310.14719 399.09375 290 419.24094 290 444.09375 C 290 468.94656 310.14719 489.09375 335 489.09375 L 370 489.09375 L 370 479.09375 L 335 479.09375 C 315.67003 479.09375 300 463.42372 300 444.09375 C 300 424.76378 315.67003 409.09375 335 409.09375 L 355 409.09375 L 355 399.09375 L 335 399.09375 z M 335 414.09375 C 318.43146 414.09375 305 427.52521 305 444.09375 C 305 452.96882 308.87445 460.94488 315 466.4375 L 315 444.09375 C 315 433.04805 323.9543 424.09375 335 424.09375 L 355 424.09375 C 366.0457 424.09375 375 433.04805 375 444.09375 L 375 489.09375 L 385 489.09375 L 385 444.09375 C 385 427.52521 371.56854 414.09375 355 414.09375 L 335 414.09375 z M 335 429.09375 C 326.71573 429.09375 320 435.80948 320 444.09375 L 320 470.0625 C 323.03434 471.8178 326.41379 473.08468 330 473.6875 L 330 444.09375 C 330 441.33233 332.23858 439.09375 335 439.09375 L 355 439.09375 L 355 429.09375 L 335 429.09375 z "
     transform="matrix(0.20386422,0,0,0.20386422,0,-52.236122)"
     id="path4146" /><path
     id="path3112"
     d="m 46.888764,54.607843 c -5.066599,0 -9.17389,4.107291 -9.17389,9.17389 0,5.066599 4.107291,9.17389 9.17389,9.17389 l 0,-2.038642 c -3.940689,0 -7.135248,-3.194559 -7.135248,-7.135248 0,-3.940689 3.194559,-7.135248 7.135248,-7.135248 l 0,-2.038642 z"
     style="opacity:1;fill:#782121;fill-opacity:1;stroke:#782121;stroke-width:0.04077284;stroke-linecap:round;stroke-linejoin:round;stroke-miterlimit:4;stroke-opacity:1;stroke-dasharray:none;stroke-dashoffset:0;overflow:visible"
     inkscape:connector-curvature="0"
     inkscape:export-filename="/Users/cignoni/Documents/Art/VCGlogo/isti201311.png"
     inkscape:export-xdpi="800.14001"
     inkscape:export-ydpi="800.14001" /><path
     id="path3114"
     d="m 46.888764,57.665806 c -3.377733,0 -6.115927,2.738195 -6.115927,6.115927 l 2.038642,0 c 0,-2.251823 1.825462,-4.077284 4.077285,-4.077284 l 0,-2.038643 z"
     style="opacity:1;fill:#782121;fill-opacity:1;stroke:#782121;stroke-width:0.04077284;stroke-linecap:round;stroke-linejoin:round;stroke-miterlimit:4;stroke-opacity:1;stroke-dasharray:none;stroke-dashoffset:0"
     inkscape:connector-curvature="0"
     inkscape:export-filename="/Users/cignoni/Documents/Art/VCGlogo/isti201311.png"
     inkscape:export-xdpi="800.14001"
     inkscape:export-ydpi="800.14001" /><rect
     y="60.723919"
     x="46.888763"
     height="2.0386429"
     width="4.0772843"
     id="rect3116"
     style="opacity:1;fill:#782121;fill-opacity:1;stroke:#782121;stroke-width:0.04077284;stroke-linecap:round;stroke-linejoin:round;stroke-miterlimit:4;stroke-opacity:1;stroke-dasharray:none;stroke-dashoffset:0"
     inkscape:export-filename="/Users/cignoni/Documents/Art/VCGlogo/isti201311.png"
     inkscape:export-xdpi="800.14001"
     inkscape:export-ydpi="800.14001" /><path
     id="path3118"
     d="m 46.888764,60.72377 c -1.688866,0 -3.057963,1.369097 -3.057963,3.057963 l 2.038642,0 c 0,-0.562955 0.456366,-1.019321 1.019321,-1.019321 l 0,-2.038642 z"
     style="opacity:1;fill:#782121;fill-opacity:1;stroke:#782121;stroke-width:0.04077284;stroke-linecap:round;stroke-linejoin:round;stroke-miterlimit:4;stroke-opacity:1;stroke-dasharray:none;stroke-dashoffset:0"
     inkscape:connector-curvature="0"
     inkscape:export-filename="/Users/cignoni/Documents/Art/VCGlogo/isti201311.png"
     inkscape:export-xdpi="800.14001"
     inkscape:export-ydpi="800.14001" /><path
     id="path3120"
     d="m 43.830801,63.781733 0,5.294099 c 0.618593,0.357843 1.307542,0.616114 2.038642,0.739008 l 0,-6.033107 -2.038642,0 z"
     style="opacity:1;fill:#782121;fill-opacity:1;stroke:#782121;stroke-width:0.04077284;stroke-linecap:round;stroke-linejoin:round;stroke-miterlimit:4;stroke-opacity:1;stroke-dasharray:none;stroke-dashoffset:0"
     inkscape:connector-curvature="0"
     inkscape:export-filename="/Users/cignoni/Documents/Art/VCGlogo/isti201311.png"
     inkscape:export-xdpi="800.14001"
     inkscape:export-ydpi="800.14001" /><path
     id="path3122"
     d="m 40.772837,63.781733 c 0,1.809309 0.789862,3.435342 2.038642,4.555091 l 0,-4.555091 -2.038642,0 z"
     style="opacity:1;fill:#782121;fill-opacity:1;stroke:#782121;stroke-width:0.04077284;stroke-linecap:round;stroke-linejoin:round;stroke-miterlimit:4;stroke-opacity:1;stroke-dasharray:none;stroke-dashoffset:0"
     inkscape:connector-curvature="0"
     inkscape:export-filename="/Users/cignoni/Documents/Art/VCGlogo/isti201311.png"
     inkscape:export-xdpi="800.14001"
     inkscape:export-ydpi="800.14001" /><rect
     style="opacity:1;fill:#782121;fill-opacity:1;stroke:#782121;stroke-width:0.04077284;stroke-linecap:round;stroke-linejoin:round;stroke-miterlimit:4;stroke-opacity:1;stroke-dasharray:none;stroke-dashoffset:0"
     id="rect3124"
     width="4.07728"
     height="2.0386429"
     x="46.888767"
     y="57.665955"
     inkscape:export-filename="/Users/cignoni/Documents/Art/VCGlogo/isti201311.png"
     inkscape:export-xdpi="800.14001"
     inkscape:export-ydpi="800.14001" /><path
     style="opacity:1;fill:#782121;fill-opacity:1;stroke:#782121;stroke-width:0.04077284;stroke-linecap:round;stroke-linejoin:round;stroke-miterlimit:4;stroke-opacity:1;stroke-dasharray:none;stroke-dashoffset:0"
     d="m 50.966049,57.665956 c 3.377732,0 6.115927,2.738194 6.115927,6.115927 l -2.038643,0 c 0,-2.251823 -1.825461,-4.077284 -4.077284,-4.077284 l 0,-2.038643 z"
     id="path3126"
     inkscape:connector-curvature="0"
     inkscape:export-filename="/Users/cignoni/Documents/Art/VCGlogo/isti201311.png"
     inkscape:export-xdpi="800.14001"
     inkscape:export-ydpi="800.14001" /><rect
     y="63.781883"
     x="55.043335"
     height="9.1738901"
     width="2.0386448"
     id="rect3128"
     style="opacity:1;fill:#782121;fill-opacity:1;stroke:#782121;stroke-width:0.04077284;stroke-linecap:round;stroke-linejoin:round;stroke-miterlimit:4;stroke-opacity:1;stroke-dasharray:none;stroke-dashoffset:0"
     inkscape:export-filename="/Users/cignoni/Documents/Art/VCGlogo/isti201311.png"
     inkscape:export-xdpi="800.14001"
     inkscape:export-ydpi="800.14001" /><rect
     y="70.91713"
     x="46.888771"
     height="2.0386429"
     width="7.1352377"
     id="rect3130"
     style="opacity:1;fill:#782121;fill-opacity:1;stroke:#782121;stroke-width:0.04077284;stroke-linecap:round;stroke-linejoin:round;stroke-miterlimit:4;stroke-opacity:1;stroke-dasharray:none;stroke-dashoffset:0"
     inkscape:export-filename="/Users/cignoni/Documents/Art/VCGlogo/isti201311.png"
     inkscape:export-xdpi="800.14001"
     inkscape:export-ydpi="800.14001" /><rect
     style="opacity:1;fill:#782121;fill-opacity:1;stroke:#782121;stroke-width:0.04077284;stroke-linecap:round;stroke-linejoin:round;stroke-miterlimit:4;stroke-opacity:1;stroke-dasharray:none;stroke-dashoffset:0"
     id="rect3132"
     width="4.0772843"
     height="2.0386429"
     x="46.888763"
     y="54.607994"
     inkscape:export-filename="/Users/cignoni/Documents/Art/VCGlogo/isti201311.png"
     inkscape:export-xdpi="800.14001"
     inkscape:export-ydpi="800.14001" /></g><rect
   style="fill:#cccccc;stroke:#000000;stroke-width:0.14447071000000000;stroke-miterlimit:4;stroke-opacity:1;stroke-dasharray:none"
   id="rect3126"
   width="27.485626"
   height="27.465139"
   x="9.1738901"
   y="50.530708"
   ry="1" /><path
   style="fill:#7f7f7f;fill-opacity:1;stroke:#000000;stroke-width:0.70866144;stroke-miterlimit:4;stroke-opacity:1;stroke-dasharray:none"
   d="m 101.62254,611.47994 c -5.510129,-4.924 -5.749029,-5.30864 -4.490317,-7.22967 4.392777,-6.70422 3.489677,-13.55277 -3.121834,-23.67426 -2.495702,-3.82064 -5.655488,-9.39711 -7.02175,-12.39216 -2.171763,-4.76083 -2.413484,-6.20188 -1.922412,-11.46066 l 0.5617,-6.01511 -3.788666,0.60584 c -2.083767,0.3332 -7.563046,2.06349 -12.176175,3.84509 -4.61313,1.78159 -8.699328,2.91509 -9.080439,2.51888 -0.381112,-0.39621 -2.766025,-5.16485 -5.299807,-10.59698 l -4.606876,-9.87661 6.153998,-2.75086 c 16.332294,-7.3006 30.444454,-9.78538 55.243418,-9.72692 14.56385,0.0343 20.80157,0.45467 29.17579,1.96606 11.5325,2.08139 22.73432,5.43999 29.13751,8.73619 l 4.03716,2.07822 -4.53526,10.09991 c -2.4944,5.55496 -4.67899,10.24364 -4.85466,10.4193 -0.17565,0.17566 -6.01825,-1.55592 -12.98353,-3.84796 -6.96528,-2.29204 -12.87018,-4.16734 -13.12201,-4.16734 -0.25182,0 -0.45955,8.44014 -0.46162,18.75586 -0.002,10.31573 -0.27478,24.07003 -0.60604,30.56511 l -0.60229,11.80925 -8.193,0 -8.193,0 0,-31.39223 c 0,-35.43678 0.70918,-32.51664 -7.89694,-32.51664 -6.13184,0 -9.49432,2.47564 -10.30832,7.58952 -0.90649,5.6949 0.43306,9.62689 6.23447,18.30011 7.21489,10.78636 8.54599,14.07286 8.64614,21.34736 0.0676,4.9074 -0.4124,6.99787 -2.5962,11.30769 -1.4735,2.908 -3.76588,6.55098 -5.09418,8.09549 l -2.4151,2.80821 -5.81976,-5.20069 z"
   id="path3121"
   inkscape:connector-curvature="0"
   transform="matrix(0.20386422,0,0,0.20386422,0,-52.236122)" /><path
   style="fill:#7f7f7f;fill-opacity:1;stroke:#000000;stroke-width:0.70866144;stroke-miterlimit:4;stroke-opacity:1;stroke-dasharray:none"
   d="m 144.02781,583.42033 0,-27.7208 8.39137,2.81432 8.39137,2.81432 -0.54237,14.48655 c -0.2983,7.9676 -0.78116,19.17552 -1.07301,24.90648 l -0.53065,10.41992 -7.31835,0 -7.31836,0 0,-27.72079 z"
   id="path3123"
   inkscape:connector-curvature="0"
   transform="matrix(0.20386422,0,0,0.20386422,0,-52.236122)" /><path
   style="fill:#7f7f7f;fill-opacity:1;stroke:#000000;stroke-width:0.70866144;stroke-miterlimit:4;stroke-opacity:1;stroke-dasharray:none"
   d="m 65.90806,595.71064 c -0.334709,-8.48677 -0.608562,-19.86023 -0.608562,-25.27436 l 0,-9.84388 7.409724,-2.42916 7.409723,-2.42915 0,8.10365 c 0,4.45701 0.27468,16.92359 0.610399,27.70351 l 0.610398,19.59987 -7.41156,0 -7.41156,0 -0.608562,-15.43048 z"
   id="path3125"
   inkscape:connector-curvature="0"
   transform="matrix(0.20386422,0,0,0.20386422,0,-52.236122)" /></svg>